<svg width="144" height="21" viewBox="0 0 144 21" fill="none" xmlns="http://www.w3.org/2000/svg">
<rect width="16.2896" height="16.2896" fill="#39FF14"/>
<rect x="1.85522" y="1.85522" width="16.2896" height="16.2896" fill="#070A0E"/>
<rect x="3.71045" y="3.71033" width="16.2896" height="16.2896" fill="#39FF14"/>
<path d="M39.04 13.06C39.04 15.34 37.36 17 34.32 17H27.1V2.76H33.92C36.96 2.76 38.64 4.28 38.64 6.56C38.64 8.12 37.86 9.3 36.26 9.68C38.12 10.04 39.04 11.36 39.04 13.06ZM36.32 12.86C36.32 11.58 35.54 10.74 34.02 10.74H29.82V14.96H34.02C35.54 14.96 36.32 14.14 36.32 12.86ZM35.92 6.78C35.92 5.5 35.14 4.8 33.62 4.8H29.82V8.74H33.62C35.14 8.74 35.92 8.06 35.92 6.78ZM43.0942 17H40.5142V2.76H43.0942V17ZM49.8073 17.2C46.4473 17.2 44.5673 15.1 44.5673 11.84C44.5673 8.6 46.4473 6.48 49.8073 6.48C53.1873 6.48 55.0673 8.6 55.0673 11.84C55.0673 15.1 53.1873 17.2 49.8073 17.2ZM49.8073 15.24C51.5273 15.24 52.4873 14.12 52.4873 11.84C52.4873 9.56 51.5273 8.44 49.8073 8.44C48.1073 8.44 47.1473 9.56 47.1473 11.84C47.1473 14.12 48.1073 15.24 49.8073 15.24ZM61.3294 17.2C58.0294 17.2 56.1494 15.1 56.1494 11.84C56.1494 8.6 58.0294 6.48 61.3294 6.48C64.6694 6.48 66.1894 8.58 66.1894 10.6H63.7694C63.5894 9.38 62.8894 8.44 61.3294 8.44C59.6894 8.44 58.7294 9.56 58.7294 11.84C58.7294 14.12 59.6894 15.24 61.3294 15.24C62.6894 15.24 63.5694 14.54 63.7694 13H66.1894C66.1894 15.22 64.5494 17.2 61.3294 17.2ZM77.6273 17H74.6473L71.6273 12.56L70.0473 14.12V17H67.4673V2.76H70.0473V11.18L74.4273 6.68H77.4273L73.3673 10.76L77.6273 17ZM84.1778 17.2C80.2178 17.2 78.2978 15.46 78.2978 12.42H80.9378C81.1578 14.3 82.0178 15.16 84.2378 15.16C86.3978 15.16 87.3378 14.24 87.3378 12.92C87.3378 11.94 86.7978 11.3 84.6178 10.98L82.7978 10.72C79.8178 10.3 78.6578 9.26 78.6578 6.94C78.6578 4.38 80.4778 2.56 84.1778 2.56C87.8778 2.56 89.6978 4.36 89.6978 7.14H87.1178C86.9378 5.46 86.0178 4.6 84.1178 4.6C82.2178 4.6 81.3778 5.48 81.3778 6.78C81.3778 7.76 81.8378 8.26 83.7378 8.52L85.5578 8.78C88.4578 9.2 90.0578 10.3 90.0578 12.76C90.0578 15.42 88.1378 17.2 84.1778 17.2ZM97.2898 17.2C95.7298 17.2 94.6898 16.56 94.1098 15.44V20.92H91.5298V6.68H93.9898V8.44C94.5498 7.24 95.5498 6.48 97.2898 6.48C100.07 6.48 101.83 8.46 101.83 11.84C101.83 15.22 100.07 17.2 97.2898 17.2ZM96.6698 15.24C98.2098 15.24 99.2498 14.2 99.2498 11.84C99.2498 9.48 98.2098 8.44 96.6698 8.44C95.1498 8.44 94.1098 9.48 94.1098 11.84C94.1098 14.2 95.1498 15.24 96.6698 15.24ZM112.467 17H109.887V10.68C109.887 9.28 109.387 8.58 108.127 8.58C106.767 8.58 105.887 9.56 105.887 11.24V17H103.307V2.76H105.887V8.16C106.447 7.16 107.367 6.48 108.927 6.48C111.287 6.48 112.467 7.68 112.467 10.18V17ZM119.182 17.2C115.822 17.2 113.942 15.1 113.942 11.84C113.942 8.66 115.742 6.48 119.062 6.48C122.402 6.48 124.202 8.68 124.202 11.72C124.202 11.94 124.182 12.14 124.162 12.38H116.522C116.602 14.48 117.602 15.44 119.182 15.44C120.462 15.44 121.302 14.8 121.602 13.74H123.982C123.542 15.86 121.962 17.2 119.182 17.2ZM119.062 8.24C117.642 8.24 116.742 9.06 116.522 10.7H121.622C121.402 9.06 120.482 8.24 119.062 8.24ZM128.27 17H125.69V6.68H128.15V8.98C128.69 7.16 129.59 6.54 131.03 6.54C131.31 6.54 131.73 6.62 131.97 6.68V8.94L130.91 8.92C129.33 8.92 128.27 10.1 128.27 12.2V17ZM137.796 17.2C134.436 17.2 132.556 15.1 132.556 11.84C132.556 8.66 134.356 6.48 137.676 6.48C141.016 6.48 142.816 8.68 142.816 11.72C142.816 11.94 142.796 12.14 142.776 12.38H135.136C135.216 14.48 136.216 15.44 137.796 15.44C139.076 15.44 139.916 14.8 140.216 13.74H142.596C142.156 15.86 140.576 17.2 137.796 17.2ZM137.676 8.24C136.256 8.24 135.356 9.06 135.136 10.7H140.236C140.016 9.06 139.096 8.24 137.676 8.24Z" fill="white"/>
</svg>
